<?xml version="1.0" encoding="UTF-8"?>
<svg id="Layer_1" xmlns="http://www.w3.org/2000/svg" version="1.1" viewBox="0 0 461 503.7" fill="#ffffff">
  <path d="M353.3,429.9v-52.8h-113.4v-34.1h48.4v-73.8h-115.6v73.8h48.4v34.1h-113.4v52.8h-34.1v73.8h87v-73.8h-35.2v-34.1c1.1.4,2.4-1.1,2.8-1.1h91.4l1.7,1.7v33.6h-34.1v73.8h87v-73.8h-34.1v-33.6l1.7-1.7h91.4c.4,0,1.7,1.5,2.8,1.1v34.1h-35.2v73.8h87v-73.8h-34.1ZM141.3,447.5l1.7,1.7v35.2l-1.7,1.7h-49c.4-1.1-1.1-2.4-1.1-2.8v-34.1l1.7-1.7h48.4ZM256.4,447.5v36.9l-1.7,1.7h-48.4l-1.7-1.7v-36.9h51.7ZM230.5,324.2h-40.2v-36.3c2.8,0,5.4-.9,8.2-1.1,8-.5,19.9-1,32-1.1,12.1.1,24,.6,32,1.1,2.8.2,5.4,1.2,8.2,1.1v36.3h-40.2ZM369.8,483.3c0,.4-1.5,1.7-1.1,2.8h-49l-1.7-1.7v-35.2l1.7-1.7h48.4l1.7,1.7v34.1Z"/>
  <path d="M446.7,408.4c-16.1-48.5-51.6-91-61.2-140.8-11.5-59.5,8.3-120.5-17.6-178.4C341.4,30.4,286.1.1,230.5,0c-55.6.1-110.9,30.4-137.4,89.3-26,57.8-6.2,118.9-17.6,178.4-9.6,49.8-45.1,92.3-61.2,140.8-10.2,30.6-13.6,63.1-14.3,95.2h30c.5-34.6,4.4-68.7,17.5-101,16.8-41.4,43.3-75.4,54-120,11-46.2,3.3-88.7,6.4-134.6,2.3-33.8,30-62.2,65-48.9,28.2,10.7,33.8,44,32.1,70.8-7.4,7.4-34.4,17.5-27.8,31,2.1,4.2,29,22.3,34.9,26.1,6.3,4.1,11.7,8.8,18.4,9,6.7-.1,12.1-4.9,18.4-9,5.9-3.8,32.8-21.9,34.9-26.1,6.6-13.5-20.4-23.5-27.8-31-1.8-26.8,3.9-60,32.1-70.8,35-13.3,62.7,15.1,65,48.9,3.1,45.9-4.6,88.3,6.4,134.6,10.6,44.7,37.1,78.6,54,120,13.1,32.2,17.1,66.3,17.5,101h30c-.7-32.1-4.1-64.6-14.3-95.2ZM264,196.2l-30.6,21.3c-.9.6-1.8,1-2.8,1.2-1-.1-2-.6-2.8-1.2l-30.6-21.3c0-1.6,22.6-15.9,26-17,2.6-.8,5.1-1.2,7.5-1.2,2.4,0,4.8.4,7.5,1.2,3.4,1.1,26,15.4,26,17Z"/>
  <circle cx="156.6" cy="149.7" r="18.1"/>
  <circle cx="304.4" cy="149.7" r="18.1"/>
</svg>
